<mxfile host="Electron" modified="2024-01-10T04:01:14.054Z" agent="Mozilla/5.0 (Windows NT 10.0; Win64; x64) AppleWebKit/537.36 (KHTML, like Gecko) draw.io/22.1.16 Chrome/120.0.6099.109 Electron/28.1.0 Safari/537.36" etag="Ftm2L3Xc4K1JZ8F8cZZR" version="22.1.16" type="device">
  <diagram id="R2lEEEUBdFMjLlhIrx00" name="Page-1">
    <mxGraphModel dx="794" dy="511" grid="1" gridSize="10" guides="1" tooltips="1" connect="1" arrows="1" fold="1" page="1" pageScale="1" pageWidth="850" pageHeight="1100" math="0" shadow="0" extFonts="Permanent Marker^https://fonts.googleapis.com/css?family=Permanent+Marker">
      <root>
        <mxCell id="0" />
        <mxCell id="1" parent="0" />
        <mxCell id="j2yjbxZgldApV6g35YvY-1" value="Hospital" style="swimlane;childLayout=stackLayout;horizontal=1;startSize=50;horizontalStack=0;rounded=1;fontSize=14;fontStyle=0;strokeWidth=2;resizeParent=0;resizeLast=1;shadow=0;dashed=0;align=center;arcSize=4;whiteSpace=wrap;html=1;fillColor=#CCFFFF;" parent="1" vertex="1">
          <mxGeometry x="60" y="180" width="250" height="120" as="geometry">
            <mxRectangle x="80" y="180" width="90" height="50" as="alternateBounds" />
          </mxGeometry>
        </mxCell>
        <mxCell id="j2yjbxZgldApV6g35YvY-2" value="&lt;u style=&quot;&quot;&gt;Hospital_ID&lt;/u&gt; &lt;span style=&quot;white-space: pre;&quot;&gt;&#x9;&lt;/span&gt;&amp;nbsp; : Interger Not Null &lt;span style=&quot;white-space: pre;&quot;&gt;&#x9;&lt;/span&gt;(PK)&amp;nbsp;&lt;br&gt;Hospital_Name : Varchar(50)&lt;br&gt;Hospital_Address(City,Country) : Varchar(35)" style="align=left;strokeColor=none;fillColor=none;spacingLeft=4;fontSize=12;verticalAlign=top;resizable=0;rotatable=0;part=1;html=1;" parent="j2yjbxZgldApV6g35YvY-1" vertex="1">
          <mxGeometry y="50" width="250" height="70" as="geometry" />
        </mxCell>
        <mxCell id="j2yjbxZgldApV6g35YvY-3" style="align=left;strokeColor=none;fillColor=none;spacingLeft=4;fontSize=12;verticalAlign=top;resizable=0;rotatable=0;part=1;html=1;" parent="j2yjbxZgldApV6g35YvY-1" vertex="1">
          <mxGeometry y="120" width="250" as="geometry" />
        </mxCell>
        <mxCell id="j2yjbxZgldApV6g35YvY-4" style="align=left;strokeColor=none;fillColor=none;spacingLeft=4;fontSize=12;verticalAlign=top;resizable=0;rotatable=0;part=1;html=1;" parent="j2yjbxZgldApV6g35YvY-1" vertex="1">
          <mxGeometry y="120" width="250" as="geometry" />
        </mxCell>
        <mxCell id="j2yjbxZgldApV6g35YvY-5" value="Doctor" style="swimlane;childLayout=stackLayout;horizontal=1;startSize=50;horizontalStack=0;rounded=1;fontSize=14;fontStyle=0;strokeWidth=2;resizeParent=0;resizeLast=1;shadow=0;dashed=0;align=center;arcSize=4;whiteSpace=wrap;html=1;fillColor=#D5E8D4;" parent="1" vertex="1">
          <mxGeometry x="410" y="180" width="310" height="130" as="geometry">
            <mxRectangle x="370" y="180" width="90" height="50" as="alternateBounds" />
          </mxGeometry>
        </mxCell>
        <mxCell id="j2yjbxZgldApV6g35YvY-6" value="&lt;u&gt;Doctor_ID&lt;/u&gt; &lt;span style=&quot;white-space: pre;&quot;&gt;&#x9;&lt;span style=&quot;white-space: pre;&quot;&gt;&#x9;&lt;/span&gt;&lt;/span&gt;:Integer Not Null&amp;nbsp; &amp;nbsp;(PK)&lt;br&gt;Hospital_ID&amp;nbsp; &amp;nbsp; &amp;nbsp; &amp;nbsp; &amp;nbsp; &amp;nbsp; &amp;nbsp;:Integer Not Null&amp;nbsp; &amp;nbsp;(FK)&lt;br&gt;Doctor_Name (First_Name,Last_Name):Varchar(30)&amp;nbsp; &amp;nbsp; &amp;nbsp; &amp;nbsp; &amp;nbsp; &amp;nbsp;&amp;nbsp;&lt;br&gt;Doctor_Specialist &lt;span style=&quot;white-space: pre;&quot;&gt;&#x9;&lt;/span&gt;:Varchar(45)&lt;br&gt;Phone_Number&lt;span style=&quot;white-space: pre;&quot;&gt;&#x9;&lt;/span&gt;:&amp;nbsp; BigInt" style="align=left;strokeColor=none;fillColor=none;spacingLeft=4;fontSize=12;verticalAlign=top;resizable=0;rotatable=0;part=1;html=1;" parent="j2yjbxZgldApV6g35YvY-5" vertex="1">
          <mxGeometry y="50" width="310" height="70" as="geometry" />
        </mxCell>
        <mxCell id="j2yjbxZgldApV6g35YvY-7" style="align=left;strokeColor=none;fillColor=none;spacingLeft=4;fontSize=12;verticalAlign=top;resizable=0;rotatable=0;part=1;html=1;" parent="j2yjbxZgldApV6g35YvY-5" vertex="1">
          <mxGeometry y="120" width="310" as="geometry" />
        </mxCell>
        <mxCell id="j2yjbxZgldApV6g35YvY-8" style="align=left;strokeColor=none;fillColor=none;spacingLeft=4;fontSize=12;verticalAlign=top;resizable=0;rotatable=0;part=1;html=1;" parent="j2yjbxZgldApV6g35YvY-5" vertex="1">
          <mxGeometry y="120" width="310" height="10" as="geometry" />
        </mxCell>
        <mxCell id="j2yjbxZgldApV6g35YvY-9" value="Appointment" style="swimlane;childLayout=stackLayout;horizontal=1;startSize=50;horizontalStack=0;rounded=1;fontSize=14;fontStyle=0;strokeWidth=2;resizeParent=0;resizeLast=1;shadow=0;dashed=0;align=center;arcSize=4;whiteSpace=wrap;html=1;fillColor=#FFCCFF;" parent="1" vertex="1">
          <mxGeometry x="410" y="360" width="310" height="160" as="geometry">
            <mxRectangle x="370" y="360" width="90" height="50" as="alternateBounds" />
          </mxGeometry>
        </mxCell>
        <mxCell id="j2yjbxZgldApV6g35YvY-10" value="&lt;u&gt;Appointment_ID&lt;/u&gt;&lt;span style=&quot;white-space: pre;&quot;&gt;&#x9;&lt;/span&gt;&amp;nbsp; &amp;nbsp;: Integer Not Null&amp;nbsp; &amp;nbsp; &amp;nbsp; (PK)&lt;br&gt;Doctor_ID&amp;nbsp; &amp;nbsp; &amp;nbsp; &amp;nbsp; &amp;nbsp; &amp;nbsp; &amp;nbsp;&lt;span style=&quot;white-space: pre;&quot;&gt;&#x9;&lt;/span&gt;&amp;nbsp; &amp;nbsp;: Integer&amp;nbsp; &amp;nbsp; &amp;nbsp; &amp;nbsp; &amp;nbsp; &amp;nbsp; &amp;nbsp; &amp;nbsp; &amp;nbsp; &amp;nbsp; (FK)&lt;br&gt;Patient_ID&amp;nbsp; &amp;nbsp; &amp;nbsp; &amp;nbsp; &amp;nbsp; &amp;nbsp; &amp;nbsp;&lt;span style=&quot;white-space: pre;&quot;&gt;&#x9;&lt;/span&gt;&amp;nbsp; &amp;nbsp;: Integer&amp;nbsp; &amp;nbsp; &amp;nbsp; &amp;nbsp; &amp;nbsp; &amp;nbsp; &amp;nbsp; &amp;nbsp; &amp;nbsp; &amp;nbsp; (FK)&amp;nbsp;&lt;br&gt;Appointment_Reason : Varchar(50)&amp;nbsp;&lt;br&gt;Appointment_Number : Integer&amp;nbsp;&lt;br&gt;Appointment_Date&amp;nbsp; &amp;nbsp; &amp;nbsp; :&amp;nbsp; Date" style="align=left;strokeColor=none;fillColor=none;spacingLeft=4;fontSize=12;verticalAlign=top;resizable=0;rotatable=0;part=1;html=1;" parent="j2yjbxZgldApV6g35YvY-9" vertex="1">
          <mxGeometry y="50" width="310" height="70" as="geometry" />
        </mxCell>
        <mxCell id="j2yjbxZgldApV6g35YvY-11" style="align=left;strokeColor=none;fillColor=none;spacingLeft=4;fontSize=12;verticalAlign=top;resizable=0;rotatable=0;part=1;html=1;" parent="j2yjbxZgldApV6g35YvY-9" vertex="1">
          <mxGeometry y="120" width="310" as="geometry" />
        </mxCell>
        <mxCell id="j2yjbxZgldApV6g35YvY-12" style="align=left;strokeColor=none;fillColor=none;spacingLeft=4;fontSize=12;verticalAlign=top;resizable=0;rotatable=0;part=1;html=1;" parent="j2yjbxZgldApV6g35YvY-9" vertex="1">
          <mxGeometry y="120" width="310" height="40" as="geometry" />
        </mxCell>
        <mxCell id="j2yjbxZgldApV6g35YvY-13" style="edgeStyle=none;rounded=0;orthogonalLoop=1;jettySize=auto;html=1;exitX=0.5;exitY=1;exitDx=0;exitDy=0;" parent="j2yjbxZgldApV6g35YvY-9" source="j2yjbxZgldApV6g35YvY-12" target="j2yjbxZgldApV6g35YvY-12" edge="1">
          <mxGeometry relative="1" as="geometry" />
        </mxCell>
        <mxCell id="j2yjbxZgldApV6g35YvY-14" value="Patient" style="swimlane;childLayout=stackLayout;horizontal=1;startSize=50;horizontalStack=0;rounded=1;fontSize=14;fontStyle=0;strokeWidth=2;resizeParent=0;resizeLast=1;shadow=0;dashed=0;align=center;arcSize=4;whiteSpace=wrap;html=1;fillColor=#FFF2CC;" parent="1" vertex="1">
          <mxGeometry x="410" y="620" width="310" height="120" as="geometry">
            <mxRectangle x="370" y="620" width="90" height="50" as="alternateBounds" />
          </mxGeometry>
        </mxCell>
        <mxCell id="j2yjbxZgldApV6g35YvY-15" value="&lt;u&gt;Patient_ID&lt;/u&gt;&amp;nbsp; &amp;nbsp; &amp;nbsp; &amp;nbsp;: Integer Not Null&amp;nbsp; &amp;nbsp;(PK)&lt;br&gt;Patient_Name&amp;nbsp; : Varchar(30)&amp;nbsp; &amp;nbsp; &amp;nbsp; &amp;nbsp; &amp;nbsp; &amp;nbsp;&lt;br&gt;Phone_Number : BigInt&lt;br&gt;Patient_Address (City,Country) : Varchar (45)" style="align=left;strokeColor=none;fillColor=none;spacingLeft=4;fontSize=12;verticalAlign=top;resizable=0;rotatable=0;part=1;html=1;" parent="j2yjbxZgldApV6g35YvY-14" vertex="1">
          <mxGeometry y="50" width="310" height="70" as="geometry" />
        </mxCell>
        <mxCell id="j2yjbxZgldApV6g35YvY-16" style="align=left;strokeColor=none;fillColor=none;spacingLeft=4;fontSize=12;verticalAlign=top;resizable=0;rotatable=0;part=1;html=1;" parent="j2yjbxZgldApV6g35YvY-14" vertex="1">
          <mxGeometry y="120" width="310" as="geometry" />
        </mxCell>
        <mxCell id="j2yjbxZgldApV6g35YvY-17" style="align=left;strokeColor=none;fillColor=none;spacingLeft=4;fontSize=12;verticalAlign=top;resizable=0;rotatable=0;part=1;html=1;" parent="j2yjbxZgldApV6g35YvY-14" vertex="1">
          <mxGeometry y="120" width="310" as="geometry" />
        </mxCell>
        <mxCell id="j2yjbxZgldApV6g35YvY-18" value="Payment" style="swimlane;childLayout=stackLayout;horizontal=1;startSize=50;horizontalStack=0;rounded=1;fontSize=14;fontStyle=0;strokeWidth=2;resizeParent=0;resizeLast=1;shadow=0;dashed=0;align=center;arcSize=4;whiteSpace=wrap;html=1;fillColor=#FFF4C3;" parent="1" vertex="1">
          <mxGeometry x="60" y="620" width="250" height="150" as="geometry">
            <mxRectangle x="90" y="620" width="90" height="50" as="alternateBounds" />
          </mxGeometry>
        </mxCell>
        <mxCell id="j2yjbxZgldApV6g35YvY-19" value="&lt;u&gt;Payment_ID&lt;/u&gt;&amp;nbsp; &amp;nbsp; &amp;nbsp; &amp;nbsp; &amp;nbsp;: Integer Not Null&amp;nbsp; &amp;nbsp; &amp;nbsp; (PK)&lt;br&gt;Patient_ID&amp;nbsp; &amp;nbsp; &amp;nbsp; &amp;nbsp; &amp;nbsp; &amp;nbsp; : Integer Not Null&amp;nbsp; &amp;nbsp; &amp;nbsp; (FK)&lt;br&gt;Recipt_ID&amp;nbsp; &amp;nbsp; &amp;nbsp; &amp;nbsp; &amp;nbsp; &amp;nbsp; &amp;nbsp;: Interger Not Null&amp;nbsp; &amp;nbsp; &amp;nbsp;(FK)&lt;br&gt;Payment_method : Varchar(30)&lt;br&gt;Payment_Amount : Integer&lt;br&gt;Payment_Date&amp;nbsp; &amp;nbsp; &amp;nbsp; :&amp;nbsp; Date" style="align=left;strokeColor=none;fillColor=none;spacingLeft=4;fontSize=12;verticalAlign=top;resizable=0;rotatable=0;part=1;html=1;" parent="j2yjbxZgldApV6g35YvY-18" vertex="1">
          <mxGeometry y="50" width="250" height="70" as="geometry" />
        </mxCell>
        <mxCell id="j2yjbxZgldApV6g35YvY-20" style="align=left;strokeColor=none;fillColor=none;spacingLeft=4;fontSize=12;verticalAlign=top;resizable=0;rotatable=0;part=1;html=1;" parent="j2yjbxZgldApV6g35YvY-18" vertex="1">
          <mxGeometry y="120" width="250" as="geometry" />
        </mxCell>
        <mxCell id="j2yjbxZgldApV6g35YvY-21" style="align=left;strokeColor=none;fillColor=none;spacingLeft=4;fontSize=12;verticalAlign=top;resizable=0;rotatable=0;part=1;html=1;" parent="j2yjbxZgldApV6g35YvY-18" vertex="1">
          <mxGeometry y="120" width="250" height="30" as="geometry" />
        </mxCell>
        <mxCell id="j2yjbxZgldApV6g35YvY-22" value="Receipt" style="swimlane;childLayout=stackLayout;horizontal=1;startSize=50;horizontalStack=0;rounded=1;fontSize=14;fontStyle=0;strokeWidth=2;resizeParent=0;resizeLast=1;shadow=0;dashed=0;align=center;arcSize=4;whiteSpace=wrap;html=1;fillColor=#CCCCFF;" parent="1" vertex="1">
          <mxGeometry x="60" y="360" width="250" height="160" as="geometry">
            <mxRectangle x="80" y="360" width="90" height="50" as="alternateBounds" />
          </mxGeometry>
        </mxCell>
        <mxCell id="j2yjbxZgldApV6g35YvY-23" value="&lt;u&gt;Receipt_Number&lt;/u&gt; : Integer Not Null&amp;nbsp; &amp;nbsp;(PK)&lt;br&gt;Appointment_ID&amp;nbsp; &lt;span style=&quot;white-space: pre;&quot;&gt;: Integer&lt;span style=&quot;white-space: pre;&quot;&gt;&#x9;&lt;/span&gt;&lt;/span&gt;&amp;nbsp; &amp;nbsp; &amp;nbsp; &amp;nbsp; &amp;nbsp; (FK)&lt;br&gt;Receipt_Status&amp;nbsp; &amp;nbsp; : Varchar(10)" style="align=left;strokeColor=none;fillColor=none;spacingLeft=4;fontSize=12;verticalAlign=top;resizable=0;rotatable=0;part=1;html=1;" parent="j2yjbxZgldApV6g35YvY-22" vertex="1">
          <mxGeometry y="50" width="250" height="70" as="geometry" />
        </mxCell>
        <mxCell id="j2yjbxZgldApV6g35YvY-24" style="align=left;strokeColor=none;fillColor=none;spacingLeft=4;fontSize=12;verticalAlign=top;resizable=0;rotatable=0;part=1;html=1;" parent="j2yjbxZgldApV6g35YvY-22" vertex="1">
          <mxGeometry y="120" width="250" as="geometry" />
        </mxCell>
        <mxCell id="j2yjbxZgldApV6g35YvY-25" style="align=left;strokeColor=none;fillColor=none;spacingLeft=4;fontSize=12;verticalAlign=top;resizable=0;rotatable=0;part=1;html=1;" parent="j2yjbxZgldApV6g35YvY-22" vertex="1">
          <mxGeometry y="120" width="250" height="40" as="geometry" />
        </mxCell>
        <mxCell id="j2yjbxZgldApV6g35YvY-26" value="" style="fontSize=12;html=1;endArrow=ERoneToMany;startArrow=ERmandOne;rounded=0;exitX=1;exitY=0.5;exitDx=0;exitDy=0;" parent="1" source="j2yjbxZgldApV6g35YvY-1" edge="1">
          <mxGeometry width="100" height="100" relative="1" as="geometry">
            <mxPoint x="200" y="390" as="sourcePoint" />
            <mxPoint x="410" y="240" as="targetPoint" />
          </mxGeometry>
        </mxCell>
        <mxCell id="j2yjbxZgldApV6g35YvY-27" value="" style="fontSize=12;html=1;endArrow=ERzeroToMany;startArrow=ERmandOne;rounded=0;" parent="1" edge="1">
          <mxGeometry width="100" height="100" relative="1" as="geometry">
            <mxPoint x="540" y="310" as="sourcePoint" />
            <mxPoint x="540" y="360" as="targetPoint" />
          </mxGeometry>
        </mxCell>
        <mxCell id="j2yjbxZgldApV6g35YvY-28" value="" style="fontSize=12;html=1;endArrow=ERmandOne;startArrow=ERmandOne;rounded=0;exitX=1;exitY=0.25;exitDx=0;exitDy=0;entryX=0;entryY=0.25;entryDx=0;entryDy=0;" parent="1" source="j2yjbxZgldApV6g35YvY-23" target="j2yjbxZgldApV6g35YvY-10" edge="1">
          <mxGeometry width="100" height="100" relative="1" as="geometry">
            <mxPoint x="230" y="440" as="sourcePoint" />
            <mxPoint x="360" y="440" as="targetPoint" />
          </mxGeometry>
        </mxCell>
        <mxCell id="j2yjbxZgldApV6g35YvY-29" value="" style="fontSize=12;html=1;endArrow=ERoneToMany;startArrow=ERmandOne;rounded=0;entryX=0.422;entryY=0.967;entryDx=0;entryDy=0;entryPerimeter=0;" parent="1" target="j2yjbxZgldApV6g35YvY-12" edge="1">
          <mxGeometry width="100" height="100" relative="1" as="geometry">
            <mxPoint x="540" y="620" as="sourcePoint" />
            <mxPoint x="430" y="540" as="targetPoint" />
          </mxGeometry>
        </mxCell>
        <mxCell id="j2yjbxZgldApV6g35YvY-30" value="" style="fontSize=12;html=1;endArrow=ERzeroToMany;startArrow=ERmandOne;rounded=0;entryX=0.5;entryY=0;entryDx=0;entryDy=0;" parent="1" target="j2yjbxZgldApV6g35YvY-18" edge="1">
          <mxGeometry width="100" height="100" relative="1" as="geometry">
            <mxPoint x="185" y="520" as="sourcePoint" />
            <mxPoint x="185" y="610" as="targetPoint" />
          </mxGeometry>
        </mxCell>
        <mxCell id="j2yjbxZgldApV6g35YvY-31" value="" style="fontSize=12;html=1;endArrow=ERzeroToMany;startArrow=ERmandOne;rounded=0;entryX=1;entryY=0.25;entryDx=0;entryDy=0;exitX=0;exitY=0.25;exitDx=0;exitDy=0;" parent="1" source="j2yjbxZgldApV6g35YvY-15" target="j2yjbxZgldApV6g35YvY-19" edge="1">
          <mxGeometry width="100" height="100" relative="1" as="geometry">
            <mxPoint x="370" y="690" as="sourcePoint" />
            <mxPoint x="240" y="690" as="targetPoint" />
          </mxGeometry>
        </mxCell>
      </root>
    </mxGraphModel>
  </diagram>
</mxfile>
